<svg xmlns="http://www.w3.org/2000/svg" viewBox="0 0 204.38 204.38">
  <title>icon-instagram</title>
  <path d="M203.71,144.37c-.8,16.36-4.52,30.87-16.5,42.84s-26.48,15.7-42.84,16.5c-14.1.8-28.07.66-42.18.66s-28.07.13-42.18-.66c-16.36-.8-30.87-4.52-42.84-16.5S1.47,160.73.67,144.37C-.12,130.27,0,116.3,0,102.19S-.12,74.12.67,60c.8-16.36,4.52-30.87,16.5-42.84S43.65,1.47,60,.67C74.12-.12,88.09,0,102.19,0s28.07-.13,42.18.66c16.36.8,30.87,4.52,42.84,16.5s15.7,26.48,16.5,42.84c.8,14.1.67,28.07.67,42.18S204.51,130.27,203.71,144.37ZM41.92,22.49a32.68,32.68,0,0,0-11.71,7.72,32.68,32.68,0,0,0-7.72,11.71c-5.32,13.44-4.13,45.37-4.13,60.27s-1.2,46.83,4.13,60.27a32.68,32.68,0,0,0,7.72,11.71,32.68,32.68,0,0,0,11.71,7.72c13.44,5.32,45.37,4.12,60.27,4.12s46.83,1.2,60.27-4.12a34.84,34.84,0,0,0,19.43-19.43C187.21,149,186,117.09,186,102.19s1.2-46.83-4.13-60.27a32.68,32.68,0,0,0-7.72-11.71,32.68,32.68,0,0,0-11.71-7.72c-13.44-5.32-45.37-4.12-60.27-4.12S55.36,17.17,41.92,22.49Zm60.27,132.12a52.42,52.42,0,1,1,52.42-52.42A52.35,52.35,0,0,1,102.19,154.61Zm0-86.48a34.06,34.06,0,1,0,34.06,34.06A34.13,34.13,0,0,0,102.19,68.13Zm54.55-8.25A12.24,12.24,0,1,1,169,47.64,12.21,12.21,0,0,1,156.74,59.88Z"/>
</svg>
