<svg xmlns="http://www.w3.org/2000/svg" viewBox="0 0 257.38 209.04">
  <title>icon-twitter</title>
  <path d="M230.93,52.1c.16,2.29.16,4.57.16,6.86C231.09,128.69,178,209,81,209A149.06,149.06,0,0,1,0,185.36a109.12,109.12,0,0,0,12.74.65,105.65,105.65,0,0,0,65.49-22.54A52.84,52.84,0,0,1,28.91,126.9a66.51,66.51,0,0,0,10,.82,55.73,55.73,0,0,0,13.88-1.8,52.76,52.76,0,0,1-42.3-51.77v-.65a53.11,53.11,0,0,0,23.84,6.7A52.83,52.83,0,0,1,18,9.64a149.94,149.94,0,0,0,108.77,55.2,59.58,59.58,0,0,1-1.31-12.09,52.8,52.8,0,0,1,91.29-36.09A103.8,103.8,0,0,0,250.2,3.92,52.6,52.6,0,0,1,227,33a105.83,105.83,0,0,0,30.38-8.17A113.44,113.44,0,0,1,230.93,52.1Z"/>
</svg>
