<svg xmlns="http://www.w3.org/2000/svg" viewBox="0 0 227.99 227.99">
  <title>icon-codepen</title>
  <path d="M228,148.73a10,10,0,0,1-4.33,8.14l-104.2,69.46a9.87,9.87,0,0,1-10.94,0L4.33,156.87A10,10,0,0,1,0,148.73V79.26a10,10,0,0,1,4.33-8.14L108.52,1.65a9.87,9.87,0,0,1,10.94,0l104.2,69.46A10,10,0,0,1,228,79.26ZM44.15,114,19.59,97.58v32.82Zm60-40.2V28.12L27.48,79.26l34.22,22.9Zm0,126.08V154.2L61.7,125.82l-34.22,22.9ZM148.6,114,114,90.84,79.39,114,114,137.15Zm51.91-34.73L123.79,28.12V73.79l42.49,28.37Zm0,69.46-34.22-22.9L123.79,154.2v45.67Zm7.89-18.32V97.58L183.84,114Z"/>
</svg>
