<svg xmlns="http://www.w3.org/2000/svg" viewBox="0 0 225.12 225.12">
  <title>icon-dribbble</title>
  <path d="M112.56,225.12A112.56,112.56,0,1,1,225.12,112.56,112.59,112.59,0,0,1,112.56,225.12ZM115.2,95.85c-49.54,14.8-97,13.63-98.63,13.63a21.65,21.65,0,0,0-.15,3.08A96.05,96.05,0,0,0,41,176.75c26.23-46.75,78.12-63.46,78.12-63.46,1.32-.44,2.64-.73,3.81-1.17C120.62,106.7,118,101.27,115.2,95.85ZM71.52,25.65A96.3,96.3,0,0,0,18.47,92.77,363.73,363.73,0,0,0,107.28,81,580.63,580.63,0,0,0,71.52,25.65Zm58,102.45c-.15,0-.44.15-.59.15S72,148.17,53.5,188.33c-.88-.73-2.2-1.61-2.2-1.61a96.29,96.29,0,0,0,98.78,14.36A405.33,405.33,0,0,0,129.56,128.09ZM89.26,19.35a.51.51,0,0,1,.29-.15C89.4,19.2,89.4,19.2,89.26,19.35Zm23.3-2.93A97.4,97.4,0,0,0,89.84,19.2a469.54,469.54,0,0,1,36.05,56C162.1,61.7,175.73,40.89,176,40.45A95.4,95.4,0,0,0,112.56,16.42Zm74.31,35c-.29.29-15.68,22.57-53.64,38.11,2.2,4.54,4.4,9.23,6.45,13.92.73,1.61,1.32,3.37,2.05,5,33.12-4.25,65.81,2.93,67,3.08A96.35,96.35,0,0,0,186.87,51.44Zm-39.28,72.11a429.24,429.24,0,0,1,18.76,68.74,96.53,96.53,0,0,0,41.18-64.49C205.48,127.21,178.66,118.71,147.59,123.55Z"/>
</svg>
