<svg xmlns="http://www.w3.org/2000/svg"><symbol id="icon-codepen" viewBox="0 0 227.99 227.99"><title>icon-codepen</title><path d="M228 148.73a10 10 0 0 1-4.33 8.14l-104.2 69.46a9.87 9.87 0 0 1-10.94 0L4.33 156.87A10 10 0 0 1 0 148.73V79.26a10 10 0 0 1 4.33-8.14L108.52 1.65a9.87 9.87 0 0 1 10.94 0l104.2 69.46a10 10 0 0 1 4.34 8.15zM44.15 114L19.59 97.58v32.82zm60-40.2V28.12L27.48 79.26l34.22 22.9zm0 126.08V154.2L61.7 125.82l-34.22 22.9zM148.6 114L114 90.84 79.39 114 114 137.15zm51.91-34.73l-76.72-51.15v45.67l42.49 28.37zm0 69.46l-34.22-22.9-42.5 28.37v45.67zm7.89-18.32V97.58L183.84 114z"/></symbol><symbol id="icon-dribbble" viewBox="0 0 225.12 225.12"><title>icon-dribbble</title><path d="M112.56 225.12a112.56 112.56 0 1 1 112.56-112.56 112.59 112.59 0 0 1-112.56 112.56zm2.64-129.27c-49.54 14.8-97 13.63-98.63 13.63a21.65 21.65 0 0 0-.15 3.08A96.05 96.05 0 0 0 41 176.75c26.23-46.75 78.12-63.46 78.12-63.46 1.32-.44 2.64-.73 3.81-1.17-2.31-5.42-4.93-10.85-7.73-16.27zm-43.68-70.2a96.3 96.3 0 0 0-53.05 67.12A363.73 363.73 0 0 0 107.28 81a580.63 580.63 0 0 0-35.76-55.35zm58 102.45c-.15 0-.44.15-.59.15S72 148.17 53.5 188.33c-.88-.73-2.2-1.61-2.2-1.61a96.29 96.29 0 0 0 98.78 14.36 405.33 405.33 0 0 0-20.52-72.99zM89.26 19.35a.51.51 0 0 1 .29-.15c-.15 0-.15 0-.29.15zm23.3-2.93a97.4 97.4 0 0 0-22.72 2.78 469.54 469.54 0 0 1 36.05 56C162.1 61.7 175.73 40.89 176 40.45a95.4 95.4 0 0 0-63.44-24.03zm74.31 35c-.29.29-15.68 22.57-53.64 38.11 2.2 4.54 4.4 9.23 6.45 13.92.73 1.61 1.32 3.37 2.05 5 33.12-4.25 65.81 2.93 67 3.08a96.35 96.35 0 0 0-21.86-60.09zm-39.28 72.11a429.24 429.24 0 0 1 18.76 68.74 96.53 96.53 0 0 0 41.18-64.49c-2.05-.57-28.87-9.07-59.94-4.23z"/></symbol><symbol id="icon-github" viewBox="0 0 203.86 198.85"><title>icon-github</title><path d="M203.86 101.93a102.09 102.09 0 0 1-69.68 96.75c-5.18.93-7-2.26-7-4.91 0-3.32.13-14.33.13-28 0-9.56-3.19-15.66-6.9-18.85 22.7-2.52 46.58-11.15 46.58-50.3a39.48 39.48 0 0 0-10.49-27.34c1.06-2.65 4.51-13-1.06-27.08-8.49-2.65-28 10.49-28 10.49a95.8 95.8 0 0 0-51 0s-19.51-13.14-28-10.49c-5.57 14.07-2.12 24.42-1.06 27.08A39.48 39.48 0 0 0 36.9 96.62c0 39 23.76 47.78 46.45 50.3-2.92 2.65-5.57 7.17-6.5 13.67-5.84 2.65-20.71 7.17-29.6-8.49a21.38 21.38 0 0 0-15.66-10.48c-10-.13-.66 6.24-.66 6.24 6.64 3.05 11.28 14.86 11.28 14.86 6 18.18 34.38 12.08 34.38 12.08 0 8.49.13 16.46.13 19s-1.86 5.84-7 4.91a102 102 0 1 1 134.18-96.75zM37.69 144.8c-.8-.27-1.46-.13-1.72.27s.13 1.19.93 1.59a1.21 1.21 0 0 0 1.73-.27c.26-.53-.14-1.19-.94-1.59zm4.78 4c-.66-.66-1.59-.93-2.12-.4s-.4 1.33.26 2.12 1.59.93 2.12.4.4-1.34-.26-2.14zm4.25 5.57a1.6 1.6 0 0 0-2.26-.8c-.66.4-.66 1.46 0 2.39s1.72 1.33 2.26.93a1.83 1.83 0 0 0 0-2.54zm5 5.57c-.93-.93-2.12-1.06-2.65-.4s-.4 1.73.53 2.52 2.12 1.06 2.65.4.31-1.73-.49-2.53zm6.37 3.72a2.11 2.11 0 0 0-2.52.93c-.27.8.53 1.73 1.73 2a1.93 1.93 0 0 0 2.52-.8c.3-.79-.49-1.79-1.69-2.14zM66 165c-1.19 0-2.12.66-2.12 1.46s.93 1.59 2.26 1.46 2.12-.66 2.12-1.46-1.1-1.62-2.26-1.46zm7.57-1.06c-1.19.27-2 1.06-1.86 2s1.2 1.33 2.39 1.06 2-1.06 1.86-1.86-1.24-1.36-2.43-1.23z"/></symbol><symbol id="icon-instagram" viewBox="0 0 204.38 204.38"><title>icon-instagram</title><path d="M203.71 144.37c-.8 16.36-4.52 30.87-16.5 42.84s-26.48 15.7-42.84 16.5c-14.1.8-28.07.66-42.18.66s-28.07.13-42.18-.66c-16.36-.8-30.87-4.52-42.84-16.5S1.47 160.73.67 144.37C-.12 130.27 0 116.3 0 102.19S-.12 74.12.67 60c.8-16.36 4.52-30.87 16.5-42.84S43.65 1.47 60 .67C74.12-.12 88.09 0 102.19 0s28.07-.13 42.18.66c16.36.8 30.87 4.52 42.84 16.5s15.7 26.48 16.5 42.84c.8 14.1.67 28.07.67 42.18s.13 28.09-.67 42.19zM41.92 22.49a32.68 32.68 0 0 0-11.71 7.72 32.68 32.68 0 0 0-7.72 11.71c-5.32 13.44-4.13 45.37-4.13 60.27s-1.2 46.83 4.13 60.27a32.68 32.68 0 0 0 7.72 11.71 32.68 32.68 0 0 0 11.71 7.72c13.44 5.32 45.37 4.12 60.27 4.12s46.83 1.2 60.27-4.12a34.84 34.84 0 0 0 19.43-19.43c5.32-13.46 4.11-45.37 4.11-60.27s1.2-46.83-4.13-60.27a32.68 32.68 0 0 0-7.72-11.71 32.68 32.68 0 0 0-11.71-7.72c-13.44-5.32-45.37-4.12-60.27-4.12s-46.81-1.2-60.25 4.12zm60.27 132.12a52.42 52.42 0 1 1 52.42-52.42 52.35 52.35 0 0 1-52.42 52.42zm0-86.48a34.06 34.06 0 1 0 34.06 34.06 34.13 34.13 0 0 0-34.06-34.06zm54.55-8.25A12.24 12.24 0 1 1 169 47.64a12.21 12.21 0 0 1-12.26 12.24z"/></symbol><symbol id="icon-linkedin" viewBox="0 0 202.53 193.56"><title>icon-linkedin</title><path d="M24.26 45.09H24c-14.64 0-24-10-24-22.55C0 9.76 9.76 0 24.52 0s24.14 9.76 24.27 22.55c.13 12.52-9.36 22.54-24.53 22.54zM46 193.56H2.51V62.89H46zm156.51 0h-43.36v-69.88c0-17.54-6.33-29.54-22-29.54-12 0-19.12 8-22.28 15.82a32.72 32.72 0 0 0-1.45 10.68v72.92H70c.53-118.41 0-130.67 0-130.67h43.4v19h-.26c5.67-9 16-22 39.43-22 28.61 0 50 18.72 50 58.81z"/></symbol><symbol id="icon-twitter" viewBox="0 0 257.38 209.04"><title>icon-twitter</title><path d="M230.93 52.1c.16 2.29.16 4.57.16 6.86C231.09 128.69 178 209 81 209a149.06 149.06 0 0 1-81-23.64 109.12 109.12 0 0 0 12.74.65 105.65 105.65 0 0 0 65.49-22.54 52.84 52.84 0 0 1-49.32-36.57 66.51 66.51 0 0 0 10 .82 55.73 55.73 0 0 0 13.88-1.8 52.76 52.76 0 0 1-42.3-51.77v-.65a53.11 53.11 0 0 0 23.84 6.7A52.83 52.83 0 0 1 18 9.64a149.94 149.94 0 0 0 108.77 55.2 59.58 59.58 0 0 1-1.31-12.09 52.8 52.8 0 0 1 91.29-36.09A103.8 103.8 0 0 0 250.2 3.92 52.6 52.6 0 0 1 227 33a105.83 105.83 0 0 0 30.38-8.17 113.44 113.44 0 0 1-26.45 27.27z"/></symbol></svg>